<?xml version="1.0" encoding="UTF-8"?>
<svg width="100px" height="100px" viewBox="0 0 100 100" version="1.1" xmlns="http://www.w3.org/2000/svg" xmlns:xlink="http://www.w3.org/1999/xlink">
    <title>logo</title>
    <g id="logo-mask" stroke="none" stroke-width="1" fill="none" fill-rule="evenodd">
        <g id="logo" fill="#000000">
            <path d="M100,68.7152174 C100,69.9108696 100,71.1043478 99.9913043,72.2978261 C99.9847826,73.3043478 99.973913,74.3108696 99.9478261,75.3152174 C99.920129,77.5157561 99.7268293,79.7110885 99.3695652,81.8826087 C98.9978261,84.0565217 98.3043478,86.1608696 97.3108696,88.1282609 C95.2972476,92.0812884 92.0834623,95.2950737 88.1304348,97.3086957 C86.1638623,98.3008049 84.0602691,98.9939428 81.8891304,99.3652174 C79.7152174,99.723913 77.5195652,99.9173913 75.3195652,99.9434783 C74.3139596,99.9694521 73.308105,99.9846704 72.3021739,99.9891304 C71.1065217,99.9956522 69.9130435,99.9956522 68.7195652,99.9956522 L31.2804348,99.9956522 C30.0869565,99.9956522 28.8934783,99.9956522 27.6978261,99.9891304 C26.6919027,99.9853982 25.6860481,99.9709046 24.6804348,99.9456522 C22.4791037,99.9175676 20.2830235,99.7235394 18.1108696,99.3652174 C15.9391304,98.9956522 13.8347826,98.3 11.8695652,97.3086957 C7.91695765,95.2955181 4.70324405,92.0825655 2.68913043,88.1304348 C1.69595654,86.1618168 1.00208487,84.0560225 0.630434783,81.8826087 C0.273173217,79.7118186 0.079873167,77.517209 0.052173913,75.3173913 C0.0260869565,74.3108696 0.0130434783,73.3043478 0.00869565217,72.2978261 C0,71.1021739 0,69.9108696 0,68.7152174 L0,31.2804348 C0,30.0847826 0,28.8891304 0.00869565217,27.6934783 C0.0130434783,26.6891304 0.0260869565,25.6826087 0.052173913,24.6782609 C0.0799060567,22.4784448 0.273205889,20.2838377 0.630434783,18.1130435 C1.00217391,15.9391304 1.69565217,13.8347826 2.68913043,11.8652174 C4.7027524,7.91218985 7.91653768,4.69840457 11.8695652,2.68478261 C13.8355813,1.69317777 15.9383812,1.00005976 18.1086957,0.62826087 C20.2826087,0.27173913 22.4782609,0.0782608696 24.6782609,0.05 C25.6847826,0.0239130435 26.6913043,0.0108695652 27.6956522,0.00652173913 C28.8913043,-1.35760968e-15 30.0869565,-1.35760968e-15 31.2782609,-1.35760968e-15 L68.7173913,-1.35760968e-15 C69.9130435,-1.35760968e-15 71.1086957,-1.35760968e-15 72.3021739,0.00652173913 C73.3080973,0.0102572893 74.3139519,0.0247508717 75.3195652,0.05 C77.5195652,0.0782608696 79.7152174,0.27173913 81.8869565,0.62826087 C84.0608696,1 86.1630435,1.69347826 88.1304348,2.68478261 C92.0844481,4.69779035 95.2990996,7.91168083 97.3130435,11.8652174 C98.305381,13.8332261 98.9985196,15.9382865 99.3695652,18.1108696 C99.7268538,20.2823867 99.9201536,22.4777209 99.9478261,24.6782609 C99.973913,25.6847826 99.9869565,26.6913043 99.9913043,27.6956522 C100,28.8913043 100,30.0847826 100,31.2782609 L100,68.7152174 Z" id="Path"></path>
        </g>
    </g>
</svg>